#!OML:ASF F:\VICON\USERDATA\INSTALL\rory3\rory3.ASF
:FULLY-SPECIFIED
:DEGREES
533
root 14.2348 17.9381 11.9607 -2.69667 9.49351 4.05838
lowerback 13.777 1.6108 1.14418
upperback 1.23859 2.36306 0.697751
thorax -6.3992 1.13553 -0.358827
lowerneck -22.4938 5.39543 -6.68674
upperneck 36.7938 10.8535 1.37507
head 16.6242 3.76374 3.95859
rclavicle -2.06736e-014 -4.77083e-015
rhumerus -35.5825 -21.5772 -67.6687
rradius 32.5198
rwrist 2.6892
rhand -17.1025 8.10111
rfingers 7.12502
rthumb 9.1364 -21.681
lclavicle -2.06736e-014 -4.77083e-015
lhumerus -35.6328 22.4899 73.2839
lradius 26.6385
lwrist -10.4126
lhand -21.2537 22.677
lfingers 7.12502
lthumb 5.12937 52.5949
rfemur -0.719933 3.27321 12.5052
rtibia 26.771
rfoot -16.6835 -5.95016
rtoes -6.85885
lfemur -11.0526 -7.69362 -3.64491
ltibia 25.7596
lfoot 7.33701 1.56829
ltoes 3.53507
534
root 14.3294 17.9309 11.9641 -2.73982 9.21889 3.85619
lowerback 13.7555 1.60572 1.36104
upperback 1.25681 2.39205 0.748896
thorax -6.36096 1.14492 -0.431476
lowerneck -22.5092 5.44044 -6.81191
upperneck 36.8399 10.8998 1.56637
head 16.6196 3.79235 4.07208
rclavicle 4.90004e-014 -1.19271e-014
rhumerus -35.4404 -21.6828 -67.6161
rradius 32.3414
rwrist 3.02061
rhand -17.2348 8.1206
rfingers 7.12502
rthumb 9.00878 -21.667
lclavicle 4.90004e-014 -1.19271e-014
lhumerus -35.6409 22.4897 73.3728
lradius 26.5048
lwrist -9.94436
lhand -21.3023 23.1492
lfingers 7.12502
lthumb 5.08246 53.0682
rfemur -0.602693 3.62427 12.4363
rtibia 26.5735
rfoot -16.6125 -5.96054
rtoes -7.01017
lfemur -10.6934 -8.04139 -3.13091
ltibia 25.1259
lfoot 8.56766 0.884616
ltoes 2.41409
535
root 14.4255 17.9203 11.9691 -2.76699 8.95019 3.66771
lowerback 13.7337 1.63059 1.53174
upperback 1.2551 2.45523 0.820228
thorax -6.34587 1.17226 -0.46359
lowerneck -22.4791 5.49335 -6.8718
upperneck 36.8591 10.9739 1.63797
head 16.6056 3.8258 4.12504
rclavicle 3.53837e-014 -1.03368e-014
rhumerus -35.4004 -21.7218 -67.4867
rradius 32.2461
rwrist 3.08167
rhand -17.2789 8.14977
rfingers 7.12502
rthumb 8.96625 -21.6397
lclavicle 3.53837e-014 -1.03368e-014
lhumerus -35.6522 22.3338 73.5475
lradius 26.4436
lwrist -9.36033
lhand -21.5866 23.1948
lfingers 7.12502
lthumb 4.80794 53.1202
rfemur -0.563662 4.04447 12.3613
rtibia 26.4758
rfoot -16.5247 -6.02653
rtoes -7.10732
lfemur -10.3124 -8.4721 -2.65815
ltibia 24.4844
lfoot 9.38019 0.0859426
ltoes 0.762777
536
root 14.5273 17.9099 11.9767 -2.79163 8.748 3.67353
lowerback 13.6682 1.63567 1.50959
upperback 1.29316 2.45853 0.851626
thorax -6.27133 1.17589 -0.415789
lowerneck -22.273 5.54347 -6.82366
upperneck 36.7083 11.0235 1.554
head 16.4867 3.85542 4.069
rclavicle 3.94588e-014 2.3059e-014
rhumerus -35.2715 -21.6689 -67.4272
rradius 32.1798
rwrist 3.00621
rhand -17.2442 8.19859
rfingers 7.12502
rthumb 8.99972 -21.5894
lclavicle 3.94588e-014 2.3059e-014
lhumerus -35.6789 22.863 73.3102
lradius 26.1376
lwrist -10.0376
lhand -21.8306 22.3896
lfingers 7.12502
lthumb 4.57237 52.3202
rfemur -0.458821 4.28934 12.0194
rtibia 26.4395
rfoot -16.5553 -6.05372
rtoes -7.71117
lfemur -9.8833 -8.96172 -2.4712
ltibia 23.842
lfoot 9.81352 -0.763578
ltoes -1.83266
537
root 14.633 17.8985 11.9841 -2.75291 8.64446 3.83958
lowerback 13.5524 1.5961 1.35412
upperback 1.31503 2.37859 0.831459
thorax -6.19035 1.14161 -0.330554
lowerneck -22.0799 5.60301 -6.79309
upperneck 36.5964 11.0874 1.50085
head 16.3863 3.89033 4.03476
rclavicle 2.55438e-014 1.03368e-014
rhumerus -35.1279 -21.5444 -67.4518
rradius 32.2001
rwrist 2.94732
rhand -17.3206 8.01465
rfingers 7.12502
rthumb 8.92594 -21.7765
lclavicle 2.55438e-014 1.03368e-014
lhumerus -35.7809 23.4292 73.0236
lradius 25.8185
lwrist -10.7817
lhand -22.2214 21.5636
lfingers 7.12502
lthumb 4.19502 51.5021
rfemur -0.3677 4.37198 11.4683
rtibia 26.413
rfoot -16.6088 -6.05879
rtoes -8.68932
lfemur -9.52419 -9.57297 -2.50782
ltibia 23.1804
lfoot 10.3601 -1.79773
ltoes -5.35466
538
root 14.7384 17.8809 11.9907 -2.69044 8.51548 3.75489
lowerback 13.5238 1.5564 1.44737
upperback 1.19341 2.34154 0.834657
thorax -6.30048 1.11941 -0.374101
lowerneck -22.1278 5.66956 -6.64387
upperneck 36.8502 11.1644 1.49162
head 16.5344 3.9224 4.0398
rclavicle 4.19436e-014 1.35174e-014
rhumerus -35.3278 -21.42 -67.4323
rradius 32.3744
rwrist 2.83857
rhand -17.3018 7.93349
rfingers 7.12502
rthumb 8.9441 -21.8569
lclavicle 4.19436e-014 1.35174e-014
lhumerus -35.9615 23.0677 73.1304
lradius 25.7515
lwrist -10.2759
lhand -22.869 21.8393
lfingers 7.12502
lthumb 3.56961 51.7892
rfemur -0.388722 4.55162 11.2238
rtibia 26.3829
rfoot -16.5789 -6.21804
rtoes -9.77478
lfemur -9.27508 -10.1002 -2.26906
ltibia 22.5709
lfoot 10.7888 -3.08004
ltoes -7.64214
539
root 14.8406 17.8659 11.9919 -2.66922 8.33177 3.36758
lowerback 13.5659 1.52786 1.82628
upperback 1.10822 2.36735 0.896376
thorax -6.40153 1.12087 -0.529983
lowerneck -22.283 5.70133 -6.55396
upperneck 36.9686 11.2018 1.49551
head 16.6363 3.93745 4.05033
rclavicle 3.63776e-014 2.62396e-014
rhumerus -35.4029 -21.5021 -67.3639
rradius 32.3755
rwrist 2.84444
rhand -17.289 8.26169
rfingers 7.12502
rthumb 8.95648 -21.5282
lclavicle 3.63776e-014 2.62396e-014
lhumerus -35.9499 22.7451 73.2107
lradius 25.7039
lwrist -9.80449
lhand -22.7824 22.5021
lfingers 7.12502
lthumb 3.65326 52.4505
rfemur -0.467523 4.97542 11.3716
rtibia 26.3792
rfoot -16.5988 -6.64865
rtoes -10.4629
lfemur -9.05931 -10.643 -1.67936
ltibia 21.9863
lfoot 10.9011 -4.28542
ltoes -7.46602
540
root 14.9446 17.8469 11.9869 -2.61493 8.16877 2.84754
lowerback 13.6445 1.48258 2.35088
upperback 0.989583 2.4001 1.01698
thorax -6.555 1.12079 -0.708683
lowerneck -22.1551 5.69209 -6.74634
upperneck 36.8452 11.1751 1.65042
head 16.5129 3.93675 4.12614
rclavicle -1.77912e-014 -1.11319e-014
rhumerus -35.515 -21.5923 -67.2339
rradius 32.4302
rwrist 2.83913
rhand -17.2929 8.51713
rfingers 7.12502
rthumb 8.95275 -21.2729
lclavicle -1.77912e-014 -1.11319e-014
lhumerus -36.0217 22.99 72.9474
lradius 25.5373
lwrist -10.1884
lhand -22.489 21.9108
lfingers 7.12502
lthumb 3.93652 51.8542
rfemur -0.617282 5.50758 11.6731
rtibia 26.3938
rfoot -16.6212 -7.25939
rtoes -10.9119
lfemur -8.93285 -11.0651 -0.957605
ltibia 21.3886
lfoot 10.8355 -5.50688
ltoes -6.75746
541
root 15.0568 17.8271 11.9935 -2.55046 8.01519 2.75786
lowerback 13.5347 1.44873 2.42916
upperback 0.968261 2.36823 1.07814
thorax -6.51689 1.10433 -0.679177
lowerneck -22.2575 5.71425 -6.82151
upperneck 36.9653 11.2479 1.68741
head 16.5861 3.95065 4.18062
rclavicle 8.24956e-015 -1.03368e-014
rhumerus -35.5372 -21.6563 -67.0695
rradius 32.5545
rwrist 2.9266
rhand -17.1189 8.67534
rfingers 7.12502
rthumb 9.1206 -21.1075
lclavicle 8.24956e-015 -1.03368e-014
lhumerus -36.1555 23.7493 72.5749
lradius 25.3241
lwrist -11.1458
lhand -22.4233 20.7309
lfingers 7.12502
lthumb 3.99997 50.6731
rfemur -0.698444 5.82794 11.4117
rtibia 26.4708
rfoot -16.7407 -7.35952
rtoes -11.0469
lfemur -8.61913 -11.4108 -0.822982
ltibia 20.74
lfoot 10.3507 -6.72825
ltoes -8.49135
542
root 15.1803 17.8046 12.0209 -2.52698 7.79314 3.16775
lowerback 13.1728 1.50396 2.04779
upperback 1.09408 2.36494 1.00044
thorax -6.19335 1.11783 -0.532581
lowerneck -22.3894 5.75849 -6.71456
upperneck 36.9981 11.3153 1.6151
head 16.6458 3.97472 4.15492
rclavicle 5.56597e-015 8.74653e-015
rhumerus -35.4327 -21.6811 -66.966
rradius 32.6871
rwrist 2.7841
rhand -17.031 8.4898
rfingers 7.12502
rthumb 9.20541 -21.2893
lclavicle 5.56597e-015 8.74653e-015
lhumerus -36.1413 23.8271 72.6317
lradius 25.3562
lwrist -11.3309
lhand -22.2708 20.9471
lfingers 7.12502
lthumb 4.14729 50.8864
rfemur -0.618121 5.78045 10.4582
rtibia 26.6259
rfoot -16.9536 -7.03854
rtoes -11.3773
lfemur -7.9559 -11.8195 -1.4152
ltibia 20.0965
lfoot 9.14617 -7.69752
ltoes -14.3096
543
root 15.3059 17.7788 12.0438 -2.52548 7.62116 3.4253
lowerback 12.9308 1.51115 1.8464
upperback 1.1319 2.33297 0.926949
thorax -6.0239 1.10902 -0.482744
lowerneck -22.2773 5.7838 -6.90987
upperneck 36.9144 11.2974 1.8896
head 16.5317 3.9937 4.28653
rclavicle -1.41137e-014 2.38542e-015
rhumerus -35.4638 -21.6198 -66.909
rradius 32.8303
rwrist 2.57429
rhand -17.0824 8.42827
rfingers 7.12502
rthumb 9.15583 -21.353
lclavicle -1.41137e-014 2.38542e-015
lhumerus -36.1586 23.612 72.7047
lradius 25.3649
lwrist -11.0492
lhand -22.3393 21.5155
lfingers 7.12502
lthumb 4.08117 51.4562
rfemur -0.582466 5.70693 9.6837
rtibia 26.8193
rfoot -17.0314 -7.05055
rtoes -12.3614
lfemur -7.33573 -12.095 -1.87367
ltibia 19.5406
lfoot 7.81423 -8.67363
ltoes -21.1442
544
root 15.4301 17.7476 12.0573 -2.49405 7.52506 3.52145
lowerback 12.8175 1.46946 1.79826
upperback 1.0714 2.26616 0.881475
thorax -6.02606 1.07668 -0.489258
lowerneck -22.1947 5.78049 -7.11217
upperneck 36.9299 11.2659 2.13687
head 16.4805 3.99379 4.41341
rclavicle 1.19271e-014 1.35174e-014
rhumerus -35.6536 -21.5662 -66.8119
rradius 33.0544
rwrist 2.31657
rhand -16.9532 8.57964
rfingers 7.12502
rthumb 9.28046 -21.1961
lclavicle 1.19271e-014 1.35174e-014
lhumerus -36.2482 23.6113 72.6223
lradius 25.2741
lwrist -10.9807
lhand -22.6329 21.5858
lfingers 7.12502
lthumb 3.79764 51.5317
rfemur -0.628964 5.68156 9.14929
rtibia 27.0411
rfoot -16.8627 -7.24234
rtoes -13.3494
lfemur -6.89462 -12.3959 -2.13102
ltibia 19.1349
lfoot 6.67298 -9.39652
ltoes -25.3729
545
root 15.556 17.7118 12.0678 -2.47788 7.35542 3.56549
lowerback 12.7291 1.48415 1.74864
upperback 1.03108 2.27918 0.913867
thorax -6.0225 1.08462 -0.427613
lowerneck -22.0751 5.76195 -7.07057
upperneck 36.8962 11.2358 2.05678
head 16.4483 3.97973 4.35804
rclavicle -2.69353e-014 -1.98785e-014
rhumerus -35.8036 -21.606 -66.524
rradius 33.2624
rwrist 2.16801
rhand -16.8714 8.59537
rfingers 7.12502
rthumb 9.35938 -21.1768
lclavicle -2.69353e-014 -1.98785e-014
lhumerus -36.3191 23.7247 72.6514
lradius 25.2151
lwrist -11.0823
lhand -22.673 21.598
lfingers 7.12502
lthumb 3.75887 51.5446
rfemur -0.678491 5.6579 8.66905
rtibia 27.2772
rfoot -16.626 -7.33643
rtoes -14.0599
lfemur -6.49878 -12.5824 -2.3666
ltibia 18.921
lfoot 5.69279 -9.55379
ltoes -26.226
546
root 15.6791 17.6805 12.0693 -2.45251 7.13927 3.40932
lowerback 12.7624 1.48492 1.86313
upperback 0.92495 2.30383 0.981782
thorax -6.15158 1.0924 -0.427738
lowerneck -21.9117 5.79736 -6.83906
upperneck 36.8406 11.241 1.88071
head 16.4149 3.99359 4.23424
rclavicle 4.57205e-015 -7.15625e-015
rhumerus -36.0291 -21.7431 -66.2663
rradius 33.5386
rwrist 2.01696
rhand -17.0458 8.20693
rfingers 7.12502
rthumb 9.1912 -21.5728
lclavicle 4.57205e-015 -7.15625e-015
lhumerus -36.3868 23.6495 72.6641
lradius 25.0915
lwrist -11.0649
lhand -22.8333 21.6969
lfingers 7.12502
lthumb 3.60409 51.6462
rfemur -0.826403 5.93196 8.4451
rtibia 27.5073
rfoot -16.6001 -7.50075
rtoes -14.1483
lfemur -6.22325 -12.4974 -2.39651
ltibia 18.8286
lfoot 4.77548 -9.25811
ltoes -26.732
